<svg xmlns="http://www.w3.org/2000/svg" viewBox="0 0 100 100">
  <rect fill="#080818" width="100" height="100" rx="22"/>
  <g transform="translate(10,25.1) scale(0.9756) translate(-9.5249995,-47.095833)">
    <path fill="#2a8cff" d="M40.348957,94.687852 L32.940624,91.257608 L32.477603,90.71095 L32.014583,90.164292 L32.014583,69.067944 L32.014583,47.971597 L32.498439,47.533715 L32.982293,47.095833 L35.752814,47.095833 L38.523332,47.095833 L38.840832,47.413333 L39.158332,47.730833 L39.158332,66.9604 L39.158332,86.189967 L39.947331,86.51678 L40.736329,86.843594 L41.137956,86.689476 L41.539582,86.535357 L41.539582,82.467018 L41.539582,78.398681 L42.023439,77.960798 L42.507293,77.522916 L42.813673,77.522916 L43.120055,77.522916 L46.130701,78.942998 L49.141347,80.36308 L49.262915,87.565141 L49.384483,94.767203 L49.268101,96.170603 L49.151722,97.574003 L48.508202,97.867209 L47.864685,98.160415 L47.810985,98.139245 L47.757285,98.118075 Z M52.410303,97.697394 L51.845317,97.234374 L51.917967,88.781354 L51.990617,80.328335 L55.158531,78.910065 L58.326446,77.491795 L58.928844,77.766266 L59.531242,78.040737 L59.531242,82.274702 L59.531242,86.508668 L60.126554,86.656782 L60.721867,86.804896 L63.98469,85.338906 L67.24751,83.872915 L67.834377,83.872915 L68.421242,83.872915 L68.738742,84.190415 L69.056242,84.507915 L69.056242,87.456699 L69.056242,90.405486 L68.593221,90.813791 L68.130200,91.222093 L60.668463,94.691254 L53.206724,98.160415 L53.09101,98.160415 L52.975289,98.160415 Z M23.02806,84.419476 L22.754166,83.907703 L22.754166,69.11465 L22.754166,54.321597 L23.238023,53.883715 L23.721877,53.445833 L26.380624,53.445833 L29.039375,53.445833 L29.377224,53.852919 L29.715076,54.260004 L29.675806,69.235859 L29.636536,84.211712 L29.337953,84.571479 L29.039374,84.931249 L26.170661,84.931249 L23.30195,84.931249 Z M71.755999,84.613749 L71.438499,84.296249 L71.438499,69.144932 L71.438499,53.993618 L71.950272,53.719725 L72.462045,53.445833 L74.974081,53.445833 L77.48612,53.445833 L77.901894,53.861607 L78.317665,54.277381 L78.317665,69.286815 L78.317665,84.296249 L77.999999,84.613915 L77.682499,84.931249 L74.877082,84.931249 L72.072499,84.931249 Z M62.337256,82.936957 L61.912499,82.5122 L61.912499,65.241899 L61.912499,47.971597 L62.396356,47.533715 L62.88021,47.095833 L65.671249,47.095833 L68.462291,47.095833 L68.761302,47.456121 L69.060313,47.816408 L68.992133,64.191017 L68.923953,80.565624 L66.410411,81.792081 L63.89687,83.018536 L63.329439,83.190124 L62.762006,83.361711 Z M14.221354,78.824639 L13.758333,78.554955 L13.758333,75.393102 L13.758333,72.231249 L12.079549,72.231249 L10.400765,72.231249 L9.9628823,71.747395 L9.5249995,71.263541 L9.5249995,69.154478 L9.5249995,67.045416 L9.8424995,66.727916 L10.159999,66.410416 L11.959166,66.410416 L13.758333,66.410416 L13.758333,63.420625 L13.758333,60.430833 L14.075833,60.113333 L14.393333,59.795833 L16.871354,59.795833 L19.349373,59.795833 L19.861146,60.069726 L20.372916,60.343619 L20.372916,69.453125 L20.372916,78.562631 L19.861143,78.836522 L19.34937,79.110416 L17.016872,79.102416 L14.684371,79.094416 Z M81.290529,78.817539 L80.697915,78.598318 L80.697915,69.47096 L80.697915,60.343618 L81.209688,60.069726 L81.721461,59.795833 L84.19948,59.795833 L86.677499,59.795833 L86.994999,60.113333 L87.312499,60.430833 L87.312499,63.420625 L87.312499,66.410416 L89.111666,66.410416 L90.910833,66.410416 L91.228333,66.727916 L91.545833,67.045416 L91.545833,69.200450 L91.545833,71.355486 L91.061979,71.793366 L90.578125,72.231249 L88.945313,72.231249 L87.312499,72.231249 L87.312499,75.414554 L87.312499,78.597857 L86.981769,78.701618 L86.65104,78.80538 L84.267091,78.921064 L81.883143,79.036745 Z M41.857082,71.913376 L41.539582,71.595876 L41.539582,68.757275 L41.539582,65.918675 L41.955357,65.502901 L42.371131,65.087127 L50.633690,65.087127 L58.896249,65.087127 L59.213749,65.404627 L59.531249,65.722127 L59.531249,68.659002 L59.531249,71.595877 L59.213749,71.913377 L58.896249,72.230877 L50.535416,72.230877 L42.174583,72.230877 Z"/>
  </g>
  <circle cx="83" cy="17" r="13" fill="#0f172a" stroke="#1e293b" stroke-width="0.8"/>
  <path d="M83 10 L77 13 L77 18 C77 21.5 79.5 24.5 83 25.5 C86.5 24.5 89 21.5 89 18 L89 13 Z" fill="#374151" stroke="#4b5563" stroke-width="0.6"/>
  <circle cx="83" cy="18" r="2.8" fill="none" stroke="#9ca3af" stroke-width="1.1"/>
  <circle cx="83" cy="18" r="1.2" fill="#9ca3af"/>
  <line x1="83" y1="14.5" x2="83" y2="15.8" stroke="#9ca3af" stroke-width="1.1" stroke-linecap="round"/>
  <line x1="83" y1="20.2" x2="83" y2="21.5" stroke="#9ca3af" stroke-width="1.1" stroke-linecap="round"/>
  <line x1="79.5" y1="18" x2="80.8" y2="18" stroke="#9ca3af" stroke-width="1.1" stroke-linecap="round"/>
  <line x1="85.2" y1="18" x2="86.5" y2="18" stroke="#9ca3af" stroke-width="1.1" stroke-linecap="round"/>
</svg>
